<svg xmlns="http://www.w3.org/2000/svg" xmlns:xlink="http://www.w3.org/1999/xlink" width="500" zoomAndPan="magnify" viewBox="0 0 375 374.999991" height="500" preserveAspectRatio="xMidYMid meet" version="1.0"><defs><clipPath id="aa4f24b547"><path d="M 0 23.90625 L 5 23.90625 L 5 29 L 0 29 Z M 0 23.90625 " clip-rule="nonzero"/></clipPath><clipPath id="8c183d5406"><path d="M 142 59 L 177 59 L 177 106.40625 L 142 106.40625 Z M 142 59 " clip-rule="nonzero"/></clipPath><clipPath id="78ff34fc47"><path d="M 142 59 L 166 59 L 166 106.40625 L 142 106.40625 Z M 142 59 " clip-rule="nonzero"/></clipPath><clipPath id="bf74e7ecba"><path d="M 204 59 L 238 59 L 238 106.40625 L 204 106.40625 Z M 204 59 " clip-rule="nonzero"/></clipPath><clipPath id="8d28d697fb"><path d="M 204 60 L 228 60 L 228 106.40625 L 204 106.40625 Z M 204 60 " clip-rule="nonzero"/></clipPath><clipPath id="1b530f569f"><path d="M 32.035156 41.042969 L 43.285156 41.042969 L 43.285156 51.542969 L 32.035156 51.542969 Z M 32.035156 41.042969 " clip-rule="nonzero"/></clipPath><clipPath id="854d21e6ac"><path d="M 94.484375 54.839844 L 105.734375 54.839844 L 105.734375 65.339844 L 94.484375 65.339844 Z M 94.484375 54.839844 " clip-rule="nonzero"/></clipPath><clipPath id="36545a8ab9"><path d="M 154.636719 60.039062 L 165.886719 60.039062 L 165.886719 70.539062 L 154.636719 70.539062 Z M 154.636719 60.039062 " clip-rule="nonzero"/></clipPath><clipPath id="94483bc8f1"><path d="M 215.066406 60.039062 L 226.316406 60.039062 L 226.316406 70.539062 L 215.066406 70.539062 Z M 215.066406 60.039062 " clip-rule="nonzero"/></clipPath><clipPath id="c87fac8269"><path d="M 275.496094 54.839844 L 286.746094 54.839844 L 286.746094 65.339844 L 275.496094 65.339844 Z M 275.496094 54.839844 " clip-rule="nonzero"/></clipPath><clipPath id="b317dd75ce"><path d="M 332.035156 41.042969 L 343.285156 41.042969 L 343.285156 51.542969 L 332.035156 51.542969 Z M 332.035156 41.042969 " clip-rule="nonzero"/></clipPath></defs><rect x="-37.5" width="450" fill="#ffffff" y="-37.499999" height="449.999989" fill-opacity="1"/><rect x="-37.5" width="450" fill="#fcf9f3" y="-37.499999" height="449.999989" fill-opacity="1"/><path fill="#f9b858" d="M 372.53125 25.863281 L 372.53125 27.546875 C 366.800781 31.3125 359.746094 34.929688 351.472656 38.34375 C 349.179688 39.289062 346.792969 40.21875 344.316406 41.132812 C 343.207031 41.546875 342.082031 41.949219 340.941406 42.347656 C 337.542969 43.542969 334.007812 44.695312 330.339844 45.808594 C 326.878906 46.859375 323.304688 47.871094 319.617188 48.847656 C 313.6875 50.421875 307.480469 51.894531 300.996094 53.265625 C 299.402344 53.601562 297.800781 53.933594 296.191406 54.253906 C 292.550781 54.980469 288.859375 55.671875 285.117188 56.320312 C 281.492188 56.953125 277.820312 57.546875 274.105469 58.105469 C 270.46875 58.652344 266.792969 59.167969 263.078125 59.644531 C 254.675781 60.726562 246.117188 61.625 237.394531 62.347656 C 233.671875 62.65625 229.925781 62.925781 226.15625 63.164062 C 222.460938 63.398438 218.75 63.597656 215.011719 63.765625 C 211.320312 63.929688 207.609375 64.0625 203.886719 64.164062 C 198.300781 64.3125 192.6875 64.386719 187.054688 64.386719 C 183.679688 64.386719 180.320312 64.363281 176.972656 64.308594 C 173.195312 64.25 169.441406 64.164062 165.703125 64.042969 C 161.964844 63.921875 158.25 63.769531 154.558594 63.582031 C 150.828125 63.394531 147.125 63.171875 143.445312 62.921875 C 134.59375 62.320312 125.921875 61.53125 117.425781 60.558594 C 113.65625 60.128906 109.929688 59.664062 106.246094 59.160156 C 102.523438 58.648438 98.847656 58.101562 95.21875 57.527344 C 91.503906 56.933594 87.84375 56.304688 84.246094 55.636719 C 80.46875 54.9375 76.757812 54.199219 73.113281 53.421875 C 66.964844 52.105469 61.074219 50.691406 55.433594 49.171875 C 51.703125 48.167969 48.09375 47.121094 44.605469 46.03125 C 40.945312 44.894531 37.421875 43.710938 34.035156 42.480469 C 32.765625 42.019531 31.519531 41.558594 30.292969 41.085938 C 28.007812 40.210938 25.800781 39.3125 23.671875 38.394531 C 15.074219 34.699219 7.789062 30.730469 1.929688 26.550781 L 1.929688 24.820312 C 7.820312 29.144531 15.261719 33.25 24.125 37.066406 C 26.269531 37.988281 28.496094 38.894531 30.796875 39.785156 C 32.007812 40.242188 33.238281 40.699219 34.484375 41.15625 C 37.871094 42.382812 41.394531 43.566406 45.058594 44.710938 C 48.546875 45.792969 52.152344 46.835938 55.886719 47.839844 C 61.464844 49.339844 67.304688 50.742188 73.402344 52.042969 C 77.019531 52.816406 80.703125 53.550781 84.453125 54.246094 C 88.054688 54.910156 91.710938 55.542969 95.425781 56.132812 C 99.054688 56.710938 102.734375 57.253906 106.460938 57.765625 C 110.144531 58.265625 113.871094 58.730469 117.640625 59.160156 C 126.078125 60.125 134.730469 60.914062 143.53125 61.507812 C 147.210938 61.761719 150.914062 61.980469 154.644531 62.167969 C 158.335938 62.351562 162.050781 62.503906 165.789062 62.625 C 169.523438 62.746094 173.28125 62.835938 177.054688 62.894531 C 180.375 62.949219 183.707031 62.972656 187.054688 62.972656 C 192.664062 62.972656 198.253906 62.898438 203.824219 62.746094 C 207.550781 62.648438 211.257812 62.515625 214.953125 62.351562 C 218.683594 62.1875 222.398438 61.984375 226.097656 61.75 C 229.863281 61.511719 233.609375 61.238281 237.332031 60.933594 C 245.980469 60.222656 254.503906 59.324219 262.847656 58.253906 C 266.5625 57.777344 270.238281 57.265625 273.875 56.714844 C 277.589844 56.15625 281.261719 55.5625 284.886719 54.933594 C 288.625 54.28125 292.316406 53.59375 295.957031 52.863281 C 297.550781 52.546875 299.128906 52.222656 300.699219 51.890625 C 307.117188 50.535156 313.273438 49.074219 319.160156 47.515625 C 322.847656 46.539062 326.421875 45.523438 329.882812 44.472656 C 333.550781 43.359375 337.085938 42.207031 340.484375 41.011719 C 341.613281 40.617188 342.730469 40.21875 343.828125 39.8125 C 346.320312 38.894531 348.71875 37.960938 351.019531 37.007812 C 359.550781 33.484375 366.761719 29.75 372.53125 25.863281 Z M 372.53125 25.863281 " fill-opacity="1" fill-rule="nonzero"/><g clip-path="url(#aa4f24b547)"><path fill="#000000" d="M 4.515625 26.128906 C 4.515625 26.425781 4.457031 26.707031 4.34375 26.980469 C 4.230469 27.253906 4.070312 27.492188 3.863281 27.703125 C 3.652344 27.910156 3.414062 28.070312 3.140625 28.183594 C 2.867188 28.296875 2.582031 28.351562 2.289062 28.351562 C 1.992188 28.351562 1.707031 28.296875 1.4375 28.183594 C 1.164062 28.070312 0.921875 27.910156 0.714844 27.703125 C 0.503906 27.492188 0.34375 27.253906 0.230469 26.980469 C 0.117188 26.707031 0.0625 26.425781 0.0625 26.128906 C 0.0625 25.835938 0.117188 25.550781 0.230469 25.28125 C 0.34375 25.007812 0.503906 24.765625 0.714844 24.558594 C 0.921875 24.351562 1.164062 24.191406 1.4375 24.078125 C 1.707031 23.964844 1.992188 23.90625 2.289062 23.90625 C 2.582031 23.90625 2.867188 23.964844 3.140625 24.078125 C 3.414062 24.191406 3.652344 24.351562 3.863281 24.558594 C 4.070312 24.765625 4.230469 25.007812 4.34375 25.28125 C 4.457031 25.550781 4.515625 25.835938 4.515625 26.128906 Z M 4.515625 26.128906 " fill-opacity="1" fill-rule="nonzero"/></g><path fill="#000000" d="M 374.933594 26.535156 C 374.933594 26.828125 374.878906 27.113281 374.765625 27.382812 C 374.652344 27.65625 374.492188 27.894531 374.28125 28.105469 C 374.074219 28.3125 373.832031 28.472656 373.558594 28.585938 C 373.289062 28.699219 373.003906 28.753906 372.707031 28.753906 C 372.414062 28.753906 372.128906 28.699219 371.855469 28.585938 C 371.582031 28.472656 371.34375 28.3125 371.132812 28.105469 C 370.925781 27.894531 370.765625 27.65625 370.652344 27.382812 C 370.539062 27.113281 370.480469 26.828125 370.480469 26.535156 C 370.480469 26.238281 370.539062 25.953125 370.652344 25.683594 C 370.765625 25.410156 370.925781 25.171875 371.132812 24.960938 C 371.34375 24.753906 371.582031 24.59375 371.855469 24.480469 C 372.128906 24.367188 372.414062 24.3125 372.707031 24.3125 C 373.003906 24.3125 373.289062 24.367188 373.558594 24.480469 C 373.832031 24.59375 374.074219 24.753906 374.28125 24.960938 C 374.492188 25.171875 374.652344 25.410156 374.765625 25.683594 C 374.878906 25.953125 374.933594 26.238281 374.933594 26.535156 Z M 374.933594 26.535156 " fill-opacity="1" fill-rule="nonzero"/><path fill="#000000" d="M 25.226562 84.144531 L 31.347656 83.5 L 43.171875 81.542969 L 55.304688 46.015625 L 45.3125 42.617188 L 35.316406 39.214844 L 25.324219 35.816406 L 13.191406 71.339844 L 21.375 80.046875 Z M 25.226562 84.144531 " fill-opacity="1" fill-rule="nonzero"/><path fill="#ffffff" d="M 25.226562 84.144531 L 31.347656 83.5 L 41.171875 54.730469 L 45.3125 42.617188 L 35.316406 39.214844 L 25.324219 35.816406 L 13.191406 71.339844 L 21.375 80.046875 Z M 25.226562 84.144531 " fill-opacity="1" fill-rule="nonzero"/><path fill="#268024" d="M 35.316406 39.214844 L 21.375 80.046875 L 13.191406 71.339844 L 25.324219 35.816406 Z M 35.316406 39.214844 " fill-opacity="1" fill-rule="nonzero"/><path fill="#db1928" d="M 55.304688 46.015625 L 35.558594 54.84375 L 25.320312 35.816406 Z M 55.304688 46.015625 " fill-opacity="1" fill-rule="nonzero"/><path fill="#000000" d="M 93.886719 100.050781 L 99.800781 98.355469 L 111.105469 94.375 L 116.863281 57.285156 L 95.996094 54.058594 L 85.5625 52.441406 L 79.804688 89.53125 L 89.378906 96.683594 Z M 93.886719 100.050781 " fill-opacity="1" fill-rule="nonzero"/><path fill="#ffffff" d="M 93.886719 100.050781 L 99.800781 98.355469 L 104.464844 68.316406 L 106.429688 55.671875 L 95.996094 54.058594 L 85.5625 52.441406 L 79.804688 89.53125 L 89.378906 96.683594 Z M 93.886719 100.050781 " fill-opacity="1" fill-rule="nonzero"/><path fill="#268024" d="M 95.996094 54.058594 L 89.378906 96.683594 L 79.804688 89.53125 L 85.5625 52.441406 Z M 95.996094 54.058594 " fill-opacity="1" fill-rule="nonzero"/><path fill="#db1928" d="M 116.863281 57.285156 L 98.953125 69.40625 L 85.5625 52.441406 Z M 116.863281 57.285156 " fill-opacity="1" fill-rule="nonzero"/><g clip-path="url(#8c183d5406)"><path fill="#000000" d="M 157.558594 106.402344 L 163.269531 104.117188 L 174.109375 99.007812 L 176.066406 61.527344 L 165.519531 60.980469 L 154.976562 60.433594 L 144.433594 59.882812 L 142.480469 97.367188 L 152.730469 103.507812 Z M 157.558594 106.402344 " fill-opacity="1" fill-rule="nonzero"/></g><g clip-path="url(#78ff34fc47)"><path fill="#ffffff" d="M 157.558594 106.402344 L 163.269531 104.117188 L 164.855469 73.761719 L 165.519531 60.980469 L 154.976562 60.433594 L 144.433594 59.882812 L 142.480469 97.367188 L 152.730469 103.507812 Z M 157.558594 106.402344 " fill-opacity="1" fill-rule="nonzero"/></g><path fill="#268024" d="M 154.976562 60.433594 L 152.730469 103.507812 L 142.480469 97.367188 L 144.433594 59.882812 Z M 154.976562 60.433594 " fill-opacity="1" fill-rule="nonzero"/><path fill="#db1928" d="M 176.066406 61.527344 L 159.480469 75.402344 L 144.433594 59.882812 Z M 176.066406 61.527344 " fill-opacity="1" fill-rule="nonzero"/><g clip-path="url(#bf74e7ecba)"><path fill="#000000" d="M 222.085938 106.132812 L 227.542969 103.289062 L 237.816406 97.132812 L 236.03125 59.644531 L 225.484375 60.144531 L 214.9375 60.648438 L 204.390625 61.148438 L 206.179688 98.636719 L 216.992188 103.734375 Z M 222.085938 106.132812 " fill-opacity="1" fill-rule="nonzero"/></g><g clip-path="url(#8d28d697fb)"><path fill="#ffffff" d="M 222.085938 106.132812 L 227.542969 103.289062 L 226.09375 72.929688 L 225.484375 60.144531 L 214.9375 60.648438 L 204.390625 61.148438 L 206.179688 98.636719 L 216.992188 103.734375 Z M 222.085938 106.132812 " fill-opacity="1" fill-rule="nonzero"/></g><path fill="#268024" d="M 214.9375 60.648438 L 216.992188 103.734375 L 206.179688 98.636719 L 204.390625 61.148438 Z M 214.9375 60.648438 " fill-opacity="1" fill-rule="nonzero"/><path fill="#db1928" d="M 236.03125 59.644531 L 220.910156 75.09375 L 204.390625 61.148438 Z M 236.03125 59.644531 " fill-opacity="1" fill-rule="nonzero"/><path fill="#000000" d="M 285.902344 99.921875 L 291.03125 96.523438 L 300.609375 89.332031 L 294.917969 52.230469 L 274.042969 55.425781 L 263.605469 57.019531 L 269.300781 94.121094 L 280.585938 98.0625 Z M 285.902344 99.921875 " fill-opacity="1" fill-rule="nonzero"/><path fill="#ffffff" d="M 285.902344 99.921875 L 291.03125 96.523438 L 286.421875 66.476562 L 284.480469 53.828125 L 274.042969 55.425781 L 263.605469 57.019531 L 269.300781 94.121094 L 280.585938 98.0625 Z M 285.902344 99.921875 " fill-opacity="1" fill-rule="nonzero"/><path fill="#268024" d="M 274.042969 55.425781 L 280.585938 98.0625 L 269.300781 94.121094 L 263.605469 57.019531 Z M 274.042969 55.425781 " fill-opacity="1" fill-rule="nonzero"/><path fill="#db1928" d="M 294.917969 52.230469 L 281.496094 69.171875 L 263.605469 57.019531 Z M 294.917969 52.230469 " fill-opacity="1" fill-rule="nonzero"/><path fill="#000000" d="M 348.421875 84.324219 L 352.894531 80.105469 L 361.105469 71.386719 L 349.15625 35.800781 L 329.132812 42.496094 L 319.121094 45.847656 L 331.070312 81.433594 L 342.867188 83.398438 Z M 348.421875 84.324219 " fill-opacity="1" fill-rule="nonzero"/><path fill="#ffffff" d="M 348.421875 84.324219 L 352.894531 80.105469 L 343.21875 51.285156 L 339.144531 39.148438 L 329.132812 42.496094 L 319.121094 45.847656 L 331.070312 81.433594 L 342.867188 83.398438 Z M 348.421875 84.324219 " fill-opacity="1" fill-rule="nonzero"/><path fill="#268024" d="M 329.132812 42.496094 L 342.867188 83.398438 L 331.070312 81.433594 L 319.121094 45.847656 Z M 329.132812 42.496094 " fill-opacity="1" fill-rule="nonzero"/><path fill="#db1928" d="M 349.15625 35.800781 L 338.824219 54.777344 L 319.121094 45.847656 Z M 349.15625 35.800781 " fill-opacity="1" fill-rule="nonzero"/><g clip-path="url(#1b530f569f)"><path fill="#ffffff" d="M 37.660156 41.046875 L 38.988281 45.054688 L 43.285156 45.054688 L 39.808594 47.53125 L 41.136719 51.539062 L 37.660156 49.0625 L 34.183594 51.539062 L 35.511719 47.53125 L 32.035156 45.054688 L 36.332031 45.054688 Z M 37.660156 41.046875 " fill-opacity="1" fill-rule="nonzero"/></g><g clip-path="url(#854d21e6ac)"><path fill="#ffffff" d="M 100.105469 54.84375 L 101.433594 58.851562 L 105.730469 58.851562 L 102.253906 61.328125 L 103.582031 65.332031 L 100.105469 62.855469 L 96.632812 65.332031 L 97.960938 61.328125 L 94.484375 58.851562 L 98.78125 58.851562 Z M 100.105469 54.84375 " fill-opacity="1" fill-rule="nonzero"/></g><g clip-path="url(#36545a8ab9)"><path fill="#ffffff" d="M 160.261719 60.042969 L 161.589844 64.046875 L 165.886719 64.046875 L 162.410156 66.523438 L 163.738281 70.53125 L 160.261719 68.054688 L 156.785156 70.53125 L 158.113281 66.523438 L 154.636719 64.046875 L 158.933594 64.046875 Z M 160.261719 60.042969 " fill-opacity="1" fill-rule="nonzero"/></g><g clip-path="url(#94483bc8f1)"><path fill="#ffffff" d="M 220.691406 60.042969 L 222.019531 64.046875 L 226.316406 64.046875 L 222.839844 66.523438 L 224.167969 70.53125 L 220.691406 68.054688 L 217.214844 70.53125 L 218.542969 66.523438 L 215.066406 64.046875 L 219.363281 64.046875 Z M 220.691406 60.042969 " fill-opacity="1" fill-rule="nonzero"/></g><g clip-path="url(#c87fac8269)"><path fill="#ffffff" d="M 281.121094 54.84375 L 282.449219 58.851562 L 286.746094 58.851562 L 283.269531 61.328125 L 284.597656 65.332031 L 281.121094 62.855469 L 277.644531 65.332031 L 278.972656 61.328125 L 275.496094 58.851562 L 279.792969 58.851562 Z M 281.121094 54.84375 " fill-opacity="1" fill-rule="nonzero"/></g><g clip-path="url(#b317dd75ce)"><path fill="#ffffff" d="M 337.660156 41.046875 L 338.988281 45.054688 L 343.285156 45.054688 L 339.808594 47.53125 L 341.136719 51.539062 L 337.660156 49.0625 L 334.183594 51.539062 L 335.511719 47.53125 L 332.035156 45.054688 L 336.332031 45.054688 Z M 337.660156 41.046875 " fill-opacity="1" fill-rule="nonzero"/></g></svg>